<svg width="27" height="12" xmlns="http://www.w3.org/2000/svg"><path d="M6.281 9V7.418h-3.58V.468H.645V9H6.28zm3.592.117c.938 0 1.68-.29 2.23-.87.548-.58.823-1.364.823-2.352v-.07c0-1.013-.274-1.812-.82-2.4-.547-.588-1.295-.882-2.245-.882-.62 0-1.162.133-1.623.398a2.64 2.64 0 00-1.06 1.14c-.246.494-.37 1.058-.37 1.69l.006.334c.043.926.338 1.66.885 2.2.547.542 1.272.812 2.174.812zm0-1.523c-.36 0-.63-.137-.814-.41-.184-.274-.276-.704-.276-1.29l.006-.357c.055-.98.412-1.47 1.072-1.47.727 0 1.09.568 1.09 1.704v.2c-.015 1.082-.375 1.623-1.078 1.623zm6.475 3.902c.648 0 1.218-.11 1.71-.331.493-.22.869-.537 1.129-.95.26-.411.39-.897.39-1.455v-6.1h-1.794l-.07.55c-.371-.444-.887-.667-1.547-.667a2.4 2.4 0 00-1.377.401c-.394.268-.697.648-.908 1.14-.211.492-.317 1.059-.317 1.7v.07c0 .992.239 1.784.715 2.375.477.592 1.102.888 1.875.888.578 0 1.057-.209 1.436-.627v.2c0 .898-.438 1.347-1.313 1.347-.601 0-1.086-.217-1.453-.65l-.826 1.16c.23.281.564.51 1 .685.435.176.885.264 1.35.264zm.31-3.902a.924.924 0 01-.82-.454c-.195-.303-.293-.714-.293-1.234 0-.597.1-1.053.299-1.368.199-.314.474-.472.826-.472.422 0 .728.145.92.434v2.666c-.195.285-.506.428-.932.428zm6.856 1.523c.937 0 1.68-.29 2.23-.87.548-.58.822-1.364.822-2.352v-.07c0-1.013-.273-1.812-.82-2.4-.547-.588-1.295-.882-2.244-.882-.621 0-1.162.133-1.623.398a2.64 2.64 0 00-1.06 1.14c-.247.494-.37 1.058-.37 1.69l.006.334c.043.926.338 1.66.885 2.2.547.542 1.271.812 2.174.812zm0-1.523c-.36 0-.631-.137-.815-.41-.183-.274-.275-.704-.275-1.29l.006-.357c.054-.98.412-1.47 1.072-1.47.727 0 1.09.568 1.09 1.704v.2c-.016 1.082-.375 1.623-1.078 1.623z"/></svg>